<svg id="Layer_1" data-name="Layer 1" xmlns="http://www.w3.org/2000/svg" xmlns:xlink="http://www.w3.org/1999/xlink" viewBox="0 0 801.09 1176.16"><defs><style>.cls-1{fill:url(#linear-gradient);}.cls-2{fill:url(#linear-gradient-2);}.cls-3{fill:#fcfcfc;}.cls-4{fill:url(#linear-gradient-3);}.cls-5{fill:url(#linear-gradient-4);}.cls-6{fill:url(#linear-gradient-5);}.cls-7{fill:url(#linear-gradient-6);}.cls-8{fill:url(#linear-gradient-7);}.cls-9{fill:url(#linear-gradient-8);}.cls-10{fill:url(#radial-gradient);}</style><linearGradient id="linear-gradient" x1="301.45" y1="634.16" x2="677.16" y2="634.16" gradientUnits="userSpaceOnUse"><stop offset="0" stop-color="#efeff0"/><stop offset="0.33" stop-color="#fff"/><stop offset="0.7" stop-color="#fff"/><stop offset="1" stop-color="#efeff0"/></linearGradient><linearGradient id="linear-gradient-2" x1="301.45" y1="304.44" x2="677.16" y2="304.44" gradientUnits="userSpaceOnUse"><stop offset="0.32" stop-color="#cb2026"/><stop offset="1" stop-color="#cb2026"/></linearGradient><linearGradient id="linear-gradient-3" x1="451.51" y1="700.65" x2="451.51" y2="786.21" gradientUnits="userSpaceOnUse"><stop offset="0" stop-color="#5690cc"/><stop offset="0.17" stop-color="#4576ae"/><stop offset="0.4" stop-color="#335a8e"/><stop offset="0.62" stop-color="#264677"/><stop offset="0.82" stop-color="#1e3a6a"/><stop offset="1" stop-color="#1b3665"/></linearGradient><linearGradient id="linear-gradient-4" x1="524.9" y1="703.23" x2="524.9" y2="786.21" gradientUnits="userSpaceOnUse"><stop offset="0" stop-color="#b86cac"/><stop offset="0.03" stop-color="#b469a8"/><stop offset="0.3" stop-color="#92528c"/><stop offset="0.56" stop-color="#7a4178"/><stop offset="0.8" stop-color="#6c376b"/><stop offset="1" stop-color="#673467"/></linearGradient><linearGradient id="linear-gradient-5" x1="475.18" y1="724.73" x2="475.18" y2="786.21" gradientUnits="userSpaceOnUse"><stop offset="0" stop-color="#e7e514"/><stop offset="0.03" stop-color="#e6de15"/><stop offset="0.25" stop-color="#dfb31b"/><stop offset="0.46" stop-color="#da9120"/><stop offset="0.66" stop-color="#d67924"/><stop offset="0.84" stop-color="#d46b26"/><stop offset="1" stop-color="#d36627"/></linearGradient><linearGradient id="linear-gradient-6" x1="500.81" y1="733.54" x2="500.81" y2="786.21" gradientUnits="userSpaceOnUse"><stop offset="0" stop-color="#119a48"/><stop offset="0.09" stop-color="#129245"/><stop offset="0.43" stop-color="#157a3c"/><stop offset="0.74" stop-color="#176c36"/><stop offset="1" stop-color="#186734"/></linearGradient><linearGradient id="linear-gradient-7" x1="489.3" y1="695.01" x2="489.3" y2="707" gradientUnits="userSpaceOnUse"><stop offset="0" stop-color="#d36627"/><stop offset="0.22" stop-color="#d26127"/><stop offset="0.48" stop-color="#d15327"/><stop offset="0.76" stop-color="#ce3b26"/><stop offset="1" stop-color="#cb2026"/></linearGradient><linearGradient id="linear-gradient-8" x1="377.15" y1="746.44" x2="601.46" y2="746.44" xlink:href="#linear-gradient-2"/><radialGradient id="radial-gradient" cx="489.3" cy="4095.85" r="400.54" gradientTransform="translate(-88.76 653.66) scale(1 0.12)" gradientUnits="userSpaceOnUse"><stop offset="0" stop-color="#580000" stop-opacity="0.95"/><stop offset="0.42" stop-color="#ac8080" stop-opacity="0.47"/><stop offset="0.79" stop-color="#e8dcdc" stop-opacity="0.13"/><stop offset="1" stop-color="#fff" stop-opacity="0"/></radialGradient></defs><title>pill</title><path class="cls-1" d="M677.16,825.5c0,92.83-97.41,168.07-190.23,168.07h0c-92.82,0-185.48-75.24-185.48-168.07V542c0-92.81,375.71-339.58,375.71-246.77Z" transform="translate(-88.76 -66.84)"/><path class="cls-2" d="M677.16,234.9c0-92.81-97.41-168.06-190.23-168.06S301.45,142.09,301.45,234.9V542H677.16Z" transform="translate(-88.76 -66.84)"/><path class="cls-3" d="M472.41,110.22a94.39,94.39,0,0,0-12.26,3.92c-3.83,1.46-8.44,3.38-13.58,5.92-2.58,1.25-5.29,2.66-8.1,4.23s-5.76,3.28-8.75,5.19-6.1,4-9.21,6.23-6.31,4.68-9.46,7.35a159.77,159.77,0,0,0-18.67,18.33c-3,3.5-5.86,7.19-8.63,11.08a142,142,0,0,0-7.69,12.37,118,118,0,0,0-6.38,13.54,112.72,112.72,0,0,0-4.75,14.47,250.86,250.86,0,0,0-5.24,28c-.56,4.62-1,9.21-1.41,13.74s-.54,9-.72,13.42a289.77,289.77,0,0,0,2.54,47.87c1,6.94,2.12,13.26,3.29,18.83S365.82,345.08,367,349A119.32,119.32,0,0,0,371,361.28s.66-4.69,1.61-12.73l1.66-14.43,2-18.53c1.49-13.51,3.23-29.13,5.46-45.65.53-4.13,1.18-8.31,1.79-12.54s1.28-8.48,2-12.75c1.44-8.56,3-17.13,4.9-25.55.93-3.92,2-7.82,3.34-11.65s2.91-7.58,4.55-11.29,3.56-7.31,5.56-10.82,4.09-7,6.32-10.27a207.64,207.64,0,0,1,14-18.61c2.44-2.85,4.84-5.63,7.25-8.26s4.8-5.14,7.14-7.53,4.63-4.63,6.84-6.77l6.37-6c4.07-3.72,7.7-6.93,10.74-9.55C468.74,113.15,472.41,110.22,472.41,110.22Z" transform="translate(-88.76 -66.84)"/><path class="cls-4" d="M447.71,716.13a7.74,7.74,0,1,0-7.74-7.74A7.74,7.74,0,0,0,447.71,716.13ZM468.56,714c-9,3.44-13.54,4.73-20.85,4.73-4.11,0-8.38-.21-16.12,6S419,739.88,420.41,741.28s12.25-9,15.69-9,2.26,24.51,2.26,24.51,4.37-.41,4.49,6c.24,13.46,1.21,23.41,6.37,23.41s6-12,6.23-27.3c.05-3.22,3.87-2.69,3.87-2.69V741.5c0-14.19,5.8-15.26,18.27-25.37S477.59,710.54,468.56,714Z" transform="translate(-88.76 -66.84)"/><path class="cls-5" d="M527,718.71A7.74,7.74,0,1,0,519.3,711,7.74,7.74,0,0,0,527,718.71Zm18.27,8.38c-7.74-6.23-15.4-6.13-19.51-6.13-7.31,0-9-3.33-18.06-6.77S488,706,500.48,716.13s17.45,8.84,16.56,23-1.75,13.85-4.51,32.25l10.21-.11c0,4.73-.21,14.94,4.95,14.94s3.87-9.09,3.87-15.37l10.86-.22s-8-38.53-4.51-38.53,15.37,6.56,16.77,5.16S553.05,733.33,545.31,727.09Z" transform="translate(-88.76 -66.84)"/><path class="cls-6" d="M475.23,738.06a6.66,6.66,0,1,0-6.66-6.66A6.66,6.66,0,0,0,475.23,738.06Zm23.65-4.51c-1.77-2.09-16.12,6.61-23.65,6.61-12.2,0-21.66-9.51-23.72-6.61s15.93,12.74,15.93,17.57v14.35l3.06.48s-1.13,20.26,4.73,20.26S481,765,481,765h2.9s.32-8.22.32-14.19S500.65,735.64,498.88,733.54Z" transform="translate(-88.76 -66.84)"/><path class="cls-7" d="M500.81,744.72a5.59,5.59,0,1,0-5.59-5.59A5.59,5.59,0,0,0,500.81,744.72Zm20.34-3.7c-1.52-1.8-13.84,5.67-20.29,5.67-10.47,0-18.58-8.16-20.35-5.67s13.66,10.93,13.66,15.08S490,773.64,490,773.64l7,0s-.17,12.55,3.88,12.55c5,0,4.71-12.56,4.71-12.56l6.41-.58s-3.42-12.13-3.42-17.25S522.67,742.82,521.15,741Z" transform="translate(-88.76 -66.84)"/><path class="cls-8" d="M492.36,695a4.79,4.79,0,0,0-3.06,1.35,4.8,4.8,0,0,0-3.06-1.35,3.07,3.07,0,0,0-3.39,3.36c0,3.78,5.44,8.51,6.45,8.63,1-.12,6.45-4.85,6.45-8.63A3.07,3.07,0,0,0,492.36,695Z" transform="translate(-88.76 -66.84)"/><path class="cls-9" d="M479.91,841s55-7.31,98.89-68.36c38.83-54.06,24.94-120.82-20.21-120.82s-55,25.8-70.94,25.8-25.8-25.8-67.07-25.8S377.15,692.92,377.15,707s8.6,88,106.63,111.68c0,0-83.84-36.54-83.84-106.63,0-20.21,13.76-37,41.28-37,15,0,24.07,10.1,47,10.1,18.64,0,25.22-14.4,45.86-14.4s36.12,10.75,36.12,54S542.18,808.84,479.91,841Z" transform="translate(-88.76 -66.84)"/><ellipse class="cls-10" cx="400.54" cy="1129.61" rx="400.54" ry="46.54"/></svg>